<mxfile host="app.diagrams.net" modified="2023-01-31T07:47:43.300Z" agent="5.0 (Windows NT 10.0; Win64; x64) AppleWebKit/537.36 (KHTML, like Gecko) Chrome/109.0.0.0 Safari/537.36" etag="YTq2GaAqzba19eB-ZFme" version="20.8.13" type="github" pages="2">
  <diagram name="泳道" id="74e2e168-ea6b-b213-b513-2b3c1d86103e">
    <mxGraphModel dx="1062" dy="566" grid="1" gridSize="10" guides="1" tooltips="1" connect="1" arrows="1" fold="1" page="1" pageScale="1" pageWidth="1100" pageHeight="850" background="none" math="0" shadow="0">
      <root>
        <mxCell id="0" />
        <mxCell id="1" parent="0" />
        <mxCell id="77e6c97f196da883-1" value="系統" style="swimlane;html=1;childLayout=stackLayout;startSize=20;rounded=0;shadow=0;labelBackgroundColor=none;strokeWidth=1;fontFamily=Verdana;fontSize=13;align=center;" parent="1" vertex="1">
          <mxGeometry x="70" y="40" width="2110" height="1390" as="geometry" />
        </mxCell>
        <mxCell id="77e6c97f196da883-2" value="PMS-PR" style="swimlane;html=1;startSize=20;fontSize=13;" parent="77e6c97f196da883-1" vertex="1">
          <mxGeometry y="20" width="370" height="1370" as="geometry" />
        </mxCell>
        <mxCell id="l3MCz5efM6AO9_rTB8cb-34" value="" style="edgeStyle=orthogonalEdgeStyle;rounded=0;orthogonalLoop=1;jettySize=auto;html=1;fontSize=13;" parent="77e6c97f196da883-2" source="l3MCz5efM6AO9_rTB8cb-28" target="l3MCz5efM6AO9_rTB8cb-31" edge="1">
          <mxGeometry relative="1" as="geometry" />
        </mxCell>
        <mxCell id="l3MCz5efM6AO9_rTB8cb-28" value="start" style="strokeWidth=2;html=1;shape=mxgraph.flowchart.start_1;whiteSpace=wrap;fontSize=13;" parent="77e6c97f196da883-2" vertex="1">
          <mxGeometry x="90" y="50" width="100" height="60" as="geometry" />
        </mxCell>
        <mxCell id="l3MCz5efM6AO9_rTB8cb-31" value="domain" style="strokeWidth=2;html=1;shape=mxgraph.flowchart.decision;whiteSpace=wrap;fontSize=13;" parent="77e6c97f196da883-2" vertex="1">
          <mxGeometry x="110" y="160" width="60" height="60" as="geometry" />
        </mxCell>
        <mxCell id="l3MCz5efM6AO9_rTB8cb-37" value="" style="endArrow=classic;html=1;rounded=0;exitX=0.5;exitY=1;exitDx=0;exitDy=0;exitPerimeter=0;fontSize=13;" parent="77e6c97f196da883-2" source="l3MCz5efM6AO9_rTB8cb-31" edge="1">
          <mxGeometry width="50" height="50" relative="1" as="geometry">
            <mxPoint x="640" y="330" as="sourcePoint" />
            <mxPoint x="230" y="260" as="targetPoint" />
            <Array as="points">
              <mxPoint x="140" y="240" />
              <mxPoint x="230" y="240" />
            </Array>
          </mxGeometry>
        </mxCell>
        <mxCell id="l3MCz5efM6AO9_rTB8cb-38" value="CN" style="edgeLabel;html=1;align=center;verticalAlign=middle;resizable=0;points=[];fontSize=13;" parent="l3MCz5efM6AO9_rTB8cb-37" vertex="1" connectable="0">
          <mxGeometry x="-0.2" relative="1" as="geometry">
            <mxPoint as="offset" />
          </mxGeometry>
        </mxCell>
        <mxCell id="77e6c97f196da883-3" value="MSDB" style="swimlane;html=1;startSize=20;fontSize=13;" parent="77e6c97f196da883-1" vertex="1">
          <mxGeometry x="370" y="20" width="370" height="1370" as="geometry" />
        </mxCell>
        <mxCell id="77e6c97f196da883-5" value="flower" style="swimlane;html=1;startSize=20;fontSize=13;" parent="77e6c97f196da883-1" vertex="1">
          <mxGeometry x="740" y="20" width="510" height="1370" as="geometry" />
        </mxCell>
        <mxCell id="l3MCz5efM6AO9_rTB8cb-53" value="角色" style="swimlane;childLayout=stackLayout;resizeParent=1;resizeParentMax=0;horizontal=0;startSize=20;horizontalStack=0;html=1;fontSize=13;" parent="1" vertex="1">
          <mxGeometry x="30" y="80" width="2150" height="1350" as="geometry" />
        </mxCell>
        <mxCell id="l3MCz5efM6AO9_rTB8cb-54" value="申請人" style="swimlane;startSize=20;horizontal=0;html=1;fontSize=13;" parent="l3MCz5efM6AO9_rTB8cb-53" vertex="1">
          <mxGeometry x="20" width="2130" height="410" as="geometry" />
        </mxCell>
        <mxCell id="l3MCz5efM6AO9_rTB8cb-59" value="vendor coloumn" style="swimlane;childLayout=stackLayout;horizontal=1;startSize=30;horizontalStack=0;rounded=1;fontSize=13;fontStyle=0;strokeWidth=2;resizeParent=0;resizeLast=1;shadow=0;dashed=0;align=center;" parent="l3MCz5efM6AO9_rTB8cb-54" vertex="1">
          <mxGeometry x="40" y="240" width="130" height="60" as="geometry" />
        </mxCell>
        <mxCell id="l3MCz5efM6AO9_rTB8cb-60" value="+free key in" style="align=left;strokeColor=none;fillColor=none;spacingLeft=4;fontSize=13;verticalAlign=top;resizable=0;rotatable=0;part=1;" parent="l3MCz5efM6AO9_rTB8cb-59" vertex="1">
          <mxGeometry y="30" width="130" height="30" as="geometry" />
        </mxCell>
        <mxCell id="l3MCz5efM6AO9_rTB8cb-62" value="vendor coloumn" style="swimlane;childLayout=stackLayout;horizontal=1;startSize=30;horizontalStack=0;rounded=1;fontSize=13;fontStyle=0;strokeWidth=2;resizeParent=0;resizeLast=1;shadow=0;dashed=0;align=center;" parent="l3MCz5efM6AO9_rTB8cb-54" vertex="1">
          <mxGeometry x="180" y="240" width="130" height="60" as="geometry">
            <mxRectangle x="180" y="240" width="140" height="30" as="alternateBounds" />
          </mxGeometry>
        </mxCell>
        <mxCell id="l3MCz5efM6AO9_rTB8cb-63" value="+vendor pool" style="align=left;strokeColor=none;fillColor=none;spacingLeft=4;fontSize=13;verticalAlign=top;resizable=0;rotatable=0;part=1;" parent="l3MCz5efM6AO9_rTB8cb-62" vertex="1">
          <mxGeometry y="30" width="130" height="30" as="geometry" />
        </mxCell>
        <mxCell id="qAhWlhqfdEPMAs1lIDXD-102" value="Form 1086&lt;br style=&quot;font-size: 13px;&quot;&gt;start" style="ellipse;whiteSpace=wrap;html=1;fontSize=13;" vertex="1" parent="l3MCz5efM6AO9_rTB8cb-54">
          <mxGeometry x="930" y="20" width="130" height="60" as="geometry" />
        </mxCell>
        <mxCell id="qAhWlhqfdEPMAs1lIDXD-111" value="" style="endArrow=classic;html=1;rounded=0;fontSize=13;entryX=0;entryY=0.5;entryDx=0;entryDy=0;" edge="1" parent="l3MCz5efM6AO9_rTB8cb-54" source="qAhWlhqfdEPMAs1lIDXD-102" target="qAhWlhqfdEPMAs1lIDXD-115">
          <mxGeometry width="50" height="50" relative="1" as="geometry">
            <mxPoint x="1180" y="60" as="sourcePoint" />
            <mxPoint x="1160" y="60" as="targetPoint" />
            <Array as="points" />
          </mxGeometry>
        </mxCell>
        <mxCell id="l3MCz5efM6AO9_rTB8cb-18" value="PR data" style="shape=parallelogram;html=1;strokeWidth=2;perimeter=parallelogramPerimeter;whiteSpace=wrap;rounded=1;arcSize=12;size=0.23;fontSize=13;" parent="l3MCz5efM6AO9_rTB8cb-54" vertex="1">
          <mxGeometry x="490" y="315" width="100" height="60" as="geometry" />
        </mxCell>
        <mxCell id="l3MCz5efM6AO9_rTB8cb-19" value="" style="endArrow=classic;html=1;rounded=0;exitX=0.5;exitY=1;exitDx=0;exitDy=0;entryX=0.103;entryY=0.623;entryDx=0;entryDy=0;entryPerimeter=0;fontSize=13;" parent="l3MCz5efM6AO9_rTB8cb-54" source="l3MCz5efM6AO9_rTB8cb-60" target="l3MCz5efM6AO9_rTB8cb-18" edge="1">
          <mxGeometry width="50" height="50" relative="1" as="geometry">
            <mxPoint x="80" y="340" as="sourcePoint" />
            <mxPoint x="470" y="350" as="targetPoint" />
            <Array as="points">
              <mxPoint x="105" y="330" />
              <mxPoint x="160" y="330" />
              <mxPoint x="160" y="350" />
            </Array>
          </mxGeometry>
        </mxCell>
        <mxCell id="l3MCz5efM6AO9_rTB8cb-20" value="" style="endArrow=classic;html=1;rounded=0;exitX=0.5;exitY=1;exitDx=0;exitDy=0;entryX=0.103;entryY=0.623;entryDx=0;entryDy=0;entryPerimeter=0;fontSize=13;" parent="l3MCz5efM6AO9_rTB8cb-54" source="l3MCz5efM6AO9_rTB8cb-63" target="l3MCz5efM6AO9_rTB8cb-18" edge="1">
          <mxGeometry width="50" height="50" relative="1" as="geometry">
            <mxPoint x="270" y="320" as="sourcePoint" />
            <mxPoint x="470" y="350" as="targetPoint" />
            <Array as="points">
              <mxPoint x="245" y="330" />
              <mxPoint x="160" y="330" />
              <mxPoint x="160" y="350" />
            </Array>
          </mxGeometry>
        </mxCell>
        <mxCell id="qAhWlhqfdEPMAs1lIDXD-115" value="將會用到vendor name 到Form 1086作申請" style="rounded=1;whiteSpace=wrap;html=1;fontSize=13;" vertex="1" parent="l3MCz5efM6AO9_rTB8cb-54">
          <mxGeometry x="1140" y="20" width="120" height="60" as="geometry" />
        </mxCell>
        <mxCell id="l3MCz5efM6AO9_rTB8cb-55" value="BUYER" style="swimlane;startSize=20;horizontal=0;html=1;fontSize=13;" parent="l3MCz5efM6AO9_rTB8cb-53" vertex="1">
          <mxGeometry x="20" y="410" width="2130" height="300" as="geometry" />
        </mxCell>
        <mxCell id="l3MCz5efM6AO9_rTB8cb-69" value="Form 180 &#xa;buyer 議價 vendor column" style="swimlane;childLayout=stackLayout;horizontal=1;startSize=40;horizontalStack=0;rounded=1;fontSize=13;fontStyle=0;strokeWidth=2;resizeParent=0;resizeLast=1;shadow=0;dashed=0;align=center;" parent="l3MCz5efM6AO9_rTB8cb-55" vertex="1">
          <mxGeometry x="770" width="180" height="70" as="geometry" />
        </mxCell>
        <mxCell id="l3MCz5efM6AO9_rTB8cb-70" value="+free key in" style="align=left;strokeColor=none;fillColor=none;spacingLeft=4;fontSize=13;verticalAlign=top;resizable=0;rotatable=0;part=1;" parent="l3MCz5efM6AO9_rTB8cb-69" vertex="1">
          <mxGeometry y="40" width="180" height="30" as="geometry" />
        </mxCell>
        <mxCell id="qAhWlhqfdEPMAs1lIDXD-21" value="Form106&lt;br style=&quot;font-size: 13px;&quot;&gt;start" style="strokeWidth=2;html=1;shape=mxgraph.flowchart.start_1;whiteSpace=wrap;fontSize=13;" vertex="1" parent="l3MCz5efM6AO9_rTB8cb-55">
          <mxGeometry x="1020" y="90" width="80" height="60" as="geometry" />
        </mxCell>
        <mxCell id="qAhWlhqfdEPMAs1lIDXD-30" value="&lt;br style=&quot;font-size: 13px;&quot;&gt;指定vendor code 申請" style="rounded=1;whiteSpace=wrap;html=1;fontSize=13;" vertex="1" parent="l3MCz5efM6AO9_rTB8cb-55">
          <mxGeometry x="1000" y="235" width="120" height="50" as="geometry" />
        </mxCell>
        <mxCell id="qAhWlhqfdEPMAs1lIDXD-31" value="" style="edgeStyle=orthogonalEdgeStyle;rounded=0;orthogonalLoop=1;jettySize=auto;html=1;fontSize=13;" edge="1" parent="l3MCz5efM6AO9_rTB8cb-55" source="qAhWlhqfdEPMAs1lIDXD-21" target="qAhWlhqfdEPMAs1lIDXD-30">
          <mxGeometry relative="1" as="geometry" />
        </mxCell>
        <mxCell id="qAhWlhqfdEPMAs1lIDXD-122" value="vendor code&lt;br style=&quot;font-size: 13px;&quot;&gt;data" style="shape=parallelogram;html=1;strokeWidth=2;perimeter=parallelogramPerimeter;whiteSpace=wrap;rounded=1;arcSize=12;size=0.23;fontSize=13;" vertex="1" parent="l3MCz5efM6AO9_rTB8cb-55">
          <mxGeometry x="530" y="230" width="100" height="60" as="geometry" />
        </mxCell>
        <mxCell id="qAhWlhqfdEPMAs1lIDXD-123" value="" style="edgeStyle=orthogonalEdgeStyle;rounded=0;orthogonalLoop=1;jettySize=auto;html=1;exitX=0;exitY=0.5;exitDx=0;exitDy=0;fontSize=13;" edge="1" parent="l3MCz5efM6AO9_rTB8cb-55" source="qAhWlhqfdEPMAs1lIDXD-30" target="qAhWlhqfdEPMAs1lIDXD-122">
          <mxGeometry relative="1" as="geometry">
            <mxPoint x="780" y="230.00000000000023" as="sourcePoint" />
            <mxPoint x="780" y="290" as="targetPoint" />
          </mxGeometry>
        </mxCell>
        <mxCell id="l3MCz5efM6AO9_rTB8cb-56" value="SYSTEM&lt;br style=&quot;font-size: 13px;&quot;&gt;" style="swimlane;startSize=20;horizontal=0;html=1;fontSize=13;" parent="l3MCz5efM6AO9_rTB8cb-53" vertex="1">
          <mxGeometry x="20" y="710" width="2130" height="640" as="geometry" />
        </mxCell>
        <mxCell id="l3MCz5efM6AO9_rTB8cb-21" value="" style="endArrow=classic;html=1;rounded=0;fontSize=13;" parent="l3MCz5efM6AO9_rTB8cb-53" source="l3MCz5efM6AO9_rTB8cb-18" target="l3MCz5efM6AO9_rTB8cb-69" edge="1">
          <mxGeometry width="50" height="50" relative="1" as="geometry">
            <mxPoint x="170" y="410" as="sourcePoint" />
            <mxPoint x="449.9999999999998" y="440" as="targetPoint" />
            <Array as="points">
              <mxPoint x="560" y="445" />
            </Array>
          </mxGeometry>
        </mxCell>
        <mxCell id="l3MCz5efM6AO9_rTB8cb-40" value="送簽" style="edgeLabel;html=1;align=center;verticalAlign=middle;resizable=0;points=[];fontSize=13;" parent="l3MCz5efM6AO9_rTB8cb-21" vertex="1" connectable="0">
          <mxGeometry x="-0.27" y="2" relative="1" as="geometry">
            <mxPoint x="1" as="offset" />
          </mxGeometry>
        </mxCell>
        <mxCell id="l3MCz5efM6AO9_rTB8cb-36" value="" style="edgeStyle=orthogonalEdgeStyle;rounded=0;orthogonalLoop=1;jettySize=auto;html=1;entryX=0.395;entryY=-0.059;entryDx=0;entryDy=0;entryPerimeter=0;fontSize=13;" parent="1" source="l3MCz5efM6AO9_rTB8cb-31" target="l3MCz5efM6AO9_rTB8cb-59" edge="1">
          <mxGeometry relative="1" as="geometry">
            <mxPoint x="140.0344827586207" y="319.9999999999999" as="targetPoint" />
          </mxGeometry>
        </mxCell>
        <mxCell id="l3MCz5efM6AO9_rTB8cb-39" value="TW" style="edgeLabel;html=1;align=center;verticalAlign=middle;resizable=0;points=[];fontSize=13;" parent="l3MCz5efM6AO9_rTB8cb-36" vertex="1" connectable="0">
          <mxGeometry x="-0.2909" y="1" relative="1" as="geometry">
            <mxPoint as="offset" />
          </mxGeometry>
        </mxCell>
        <mxCell id="qAhWlhqfdEPMAs1lIDXD-113" value="ERP" style="swimlane;html=1;startSize=20;fontSize=13;" vertex="1" parent="1">
          <mxGeometry x="1320" y="60" width="860" height="1370" as="geometry" />
        </mxCell>
        <mxCell id="qAhWlhqfdEPMAs1lIDXD-49" value="vspace.I_PO_REQUISITIONS_TEMP.&lt;br style=&quot;padding: 0px; margin: 0px; font-size: 13px;&quot;&gt;&lt;span style=&quot;font-size: 13px;&quot;&gt;vendor_name&lt;/span&gt;" style="html=1;dashed=0;whitespace=wrap;shape=partialRectangle;right=0;left=0;fontSize=13;" vertex="1" parent="qAhWlhqfdEPMAs1lIDXD-113">
          <mxGeometry x="235" y="800" width="140" height="40" as="geometry" />
        </mxCell>
        <mxCell id="qAhWlhqfdEPMAs1lIDXD-50" value="po.po_requisitions_interface_all.&lt;br style=&quot;padding: 0px; margin: 0px; font-size: 13px;&quot;&gt;&lt;span style=&quot;font-size: 13px;&quot;&gt;suggested_vendor_name&lt;/span&gt;" style="html=1;dashed=0;whitespace=wrap;shape=partialRectangle;right=0;left=0;fontSize=13;" vertex="1" parent="qAhWlhqfdEPMAs1lIDXD-113">
          <mxGeometry x="215" y="900" width="170" height="40" as="geometry" />
        </mxCell>
        <mxCell id="qAhWlhqfdEPMAs1lIDXD-52" value="apps.vspo_pr_import" style="edgeStyle=orthogonalEdgeStyle;rounded=0;orthogonalLoop=1;jettySize=auto;html=1;fontSize=13;" edge="1" parent="qAhWlhqfdEPMAs1lIDXD-113" source="qAhWlhqfdEPMAs1lIDXD-49" target="qAhWlhqfdEPMAs1lIDXD-50">
          <mxGeometry relative="1" as="geometry">
            <Array as="points">
              <mxPoint x="305" y="880" />
              <mxPoint x="305" y="880" />
            </Array>
          </mxGeometry>
        </mxCell>
        <mxCell id="qAhWlhqfdEPMAs1lIDXD-51" value="PO.PO_REQUISITION_LINES_ALL .&lt;br style=&quot;font-size: 13px;&quot;&gt;SUGGESTED_VENDOR_NAME" style="html=1;dashed=0;whitespace=wrap;shape=partialRectangle;right=0;left=0;fontSize=13;" vertex="1" parent="qAhWlhqfdEPMAs1lIDXD-113">
          <mxGeometry x="215" y="1010" width="140" height="50" as="geometry" />
        </mxCell>
        <mxCell id="qAhWlhqfdEPMAs1lIDXD-88" value="" style="edgeStyle=orthogonalEdgeStyle;rounded=0;orthogonalLoop=1;jettySize=auto;html=1;fontSize=13;" edge="1" parent="qAhWlhqfdEPMAs1lIDXD-113" source="qAhWlhqfdEPMAs1lIDXD-50" target="qAhWlhqfdEPMAs1lIDXD-51">
          <mxGeometry relative="1" as="geometry">
            <Array as="points">
              <mxPoint x="305" y="960" />
              <mxPoint x="280" y="960" />
            </Array>
          </mxGeometry>
        </mxCell>
        <mxCell id="qAhWlhqfdEPMAs1lIDXD-94" value="Requisition Import" style="edgeLabel;html=1;align=center;verticalAlign=middle;resizable=0;points=[];fontSize=13;" vertex="1" connectable="0" parent="qAhWlhqfdEPMAs1lIDXD-88">
          <mxGeometry x="-0.0217" relative="1" as="geometry">
            <mxPoint x="60" y="10" as="offset" />
          </mxGeometry>
        </mxCell>
        <mxCell id="qAhWlhqfdEPMAs1lIDXD-61" style="edgeStyle=orthogonalEdgeStyle;rounded=0;orthogonalLoop=1;jettySize=auto;html=1;entryX=1;entryY=0.5;entryDx=0;entryDy=0;entryPerimeter=0;fontSize=13;" edge="1" parent="qAhWlhqfdEPMAs1lIDXD-113">
          <mxGeometry relative="1" as="geometry">
            <mxPoint x="305" y="1150" as="sourcePoint" />
            <mxPoint x="305" y="1150" as="targetPoint" />
          </mxGeometry>
        </mxCell>
        <mxCell id="qAhWlhqfdEPMAs1lIDXD-68" value="vspo_vendor_header_interface.&lt;br style=&quot;font-size: 13px;&quot;&gt;vendor_name" style="html=1;dashed=0;whitespace=wrap;shape=partialRectangle;right=0;left=0;fontSize=13;" vertex="1" parent="qAhWlhqfdEPMAs1lIDXD-113">
          <mxGeometry x="170" y="1240" width="140" height="40" as="geometry" />
        </mxCell>
        <mxCell id="qAhWlhqfdEPMAs1lIDXD-73" value="po.po_vendors.&lt;br style=&quot;font-size: 13px;&quot;&gt;vendor_name" style="html=1;dashed=0;whitespace=wrap;shape=partialRectangle;right=0;left=0;fontSize=13;" vertex="1" parent="qAhWlhqfdEPMAs1lIDXD-113">
          <mxGeometry x="520" y="1240" width="140" height="40" as="geometry" />
        </mxCell>
        <mxCell id="qAhWlhqfdEPMAs1lIDXD-74" value="apps.vendor_import" style="edgeStyle=orthogonalEdgeStyle;rounded=0;orthogonalLoop=1;jettySize=auto;html=1;fontSize=13;" edge="1" parent="qAhWlhqfdEPMAs1lIDXD-113" source="qAhWlhqfdEPMAs1lIDXD-68" target="qAhWlhqfdEPMAs1lIDXD-73">
          <mxGeometry relative="1" as="geometry" />
        </mxCell>
        <mxCell id="qAhWlhqfdEPMAs1lIDXD-85" value="PO.PO_REQUISITION_HEADERS_ALL&amp;nbsp;" style="html=1;dashed=0;whitespace=wrap;shape=partialRectangle;right=0;left=0;fontSize=13;" vertex="1" parent="qAhWlhqfdEPMAs1lIDXD-113">
          <mxGeometry x="530" y="1015" width="140" height="40" as="geometry" />
        </mxCell>
        <mxCell id="qAhWlhqfdEPMAs1lIDXD-89" value="" style="edgeStyle=orthogonalEdgeStyle;rounded=0;orthogonalLoop=1;jettySize=auto;html=1;entryX=0.5;entryY=0;entryDx=0;entryDy=0;exitX=0.5;exitY=1;exitDx=0;exitDy=0;fontSize=13;" edge="1" parent="qAhWlhqfdEPMAs1lIDXD-113" source="qAhWlhqfdEPMAs1lIDXD-50" target="qAhWlhqfdEPMAs1lIDXD-85">
          <mxGeometry relative="1" as="geometry">
            <mxPoint x="310.00000000000045" y="950" as="sourcePoint" />
            <mxPoint x="314.9565217391305" y="1020" as="targetPoint" />
            <Array as="points">
              <mxPoint x="305" y="940" />
              <mxPoint x="305" y="960" />
              <mxPoint x="600" y="960" />
            </Array>
          </mxGeometry>
        </mxCell>
        <mxCell id="qAhWlhqfdEPMAs1lIDXD-129" value="Start" style="ellipse;whiteSpace=wrap;html=1;fontSize=13;" vertex="1" parent="qAhWlhqfdEPMAs1lIDXD-113">
          <mxGeometry x="585" y="440" width="70" height="50" as="geometry" />
        </mxCell>
        <mxCell id="qAhWlhqfdEPMAs1lIDXD-134" value="簽核完成&lt;br&gt;PR data" style="shape=parallelogram;html=1;strokeWidth=2;perimeter=parallelogramPerimeter;whiteSpace=wrap;rounded=1;arcSize=12;size=0.23;fontSize=13;" vertex="1" parent="qAhWlhqfdEPMAs1lIDXD-113">
          <mxGeometry x="550" y="1110" width="100" height="60" as="geometry" />
        </mxCell>
        <mxCell id="qAhWlhqfdEPMAs1lIDXD-135" value="" style="endArrow=classic;html=1;rounded=0;dashed=1;fontSize=13;exitX=0.452;exitY=1.067;exitDx=0;exitDy=0;exitPerimeter=0;entryX=0;entryY=0.25;entryDx=0;entryDy=0;" edge="1" parent="qAhWlhqfdEPMAs1lIDXD-113" source="qAhWlhqfdEPMAs1lIDXD-51" target="qAhWlhqfdEPMAs1lIDXD-134">
          <mxGeometry width="50" height="50" relative="1" as="geometry">
            <mxPoint x="490" y="890" as="sourcePoint" />
            <mxPoint x="540" y="840" as="targetPoint" />
            <Array as="points">
              <mxPoint x="280" y="1130" />
            </Array>
          </mxGeometry>
        </mxCell>
        <mxCell id="qAhWlhqfdEPMAs1lIDXD-136" value="" style="endArrow=classic;html=1;rounded=0;dashed=1;fontSize=13;exitX=0.5;exitY=1;exitDx=0;exitDy=0;entryX=0.5;entryY=0;entryDx=0;entryDy=0;" edge="1" parent="qAhWlhqfdEPMAs1lIDXD-113" source="qAhWlhqfdEPMAs1lIDXD-85" target="qAhWlhqfdEPMAs1lIDXD-134">
          <mxGeometry width="50" height="50" relative="1" as="geometry">
            <mxPoint x="288.27999999999975" y="1073.35" as="sourcePoint" />
            <mxPoint x="590" y="1120" as="targetPoint" />
          </mxGeometry>
        </mxCell>
        <mxCell id="qAhWlhqfdEPMAs1lIDXD-138" value="將PR透過auto create開立PO" style="rounded=1;whiteSpace=wrap;html=1;absoluteArcSize=1;arcSize=14;strokeWidth=2;fontSize=13;" vertex="1" parent="qAhWlhqfdEPMAs1lIDXD-113">
          <mxGeometry x="570" y="550" width="100" height="60" as="geometry" />
        </mxCell>
        <mxCell id="qAhWlhqfdEPMAs1lIDXD-139" value="" style="endArrow=classic;html=1;rounded=0;fontSize=13;exitX=1;exitY=0.5;exitDx=0;exitDy=0;entryX=0.5;entryY=1;entryDx=0;entryDy=0;" edge="1" parent="qAhWlhqfdEPMAs1lIDXD-113" source="qAhWlhqfdEPMAs1lIDXD-134" target="qAhWlhqfdEPMAs1lIDXD-138">
          <mxGeometry width="50" height="50" relative="1" as="geometry">
            <mxPoint x="340" y="860" as="sourcePoint" />
            <mxPoint x="390" y="810" as="targetPoint" />
            <Array as="points">
              <mxPoint x="740" y="1140" />
              <mxPoint x="740" y="800" />
              <mxPoint x="620" y="800" />
            </Array>
          </mxGeometry>
        </mxCell>
        <mxCell id="qAhWlhqfdEPMAs1lIDXD-140" value="" style="endArrow=classic;html=1;rounded=0;fontSize=13;exitX=0.5;exitY=1;exitDx=0;exitDy=0;" edge="1" parent="qAhWlhqfdEPMAs1lIDXD-113" source="qAhWlhqfdEPMAs1lIDXD-129" target="qAhWlhqfdEPMAs1lIDXD-138">
          <mxGeometry width="50" height="50" relative="1" as="geometry">
            <mxPoint x="340" y="740" as="sourcePoint" />
            <mxPoint x="390" y="690" as="targetPoint" />
          </mxGeometry>
        </mxCell>
        <mxCell id="qAhWlhqfdEPMAs1lIDXD-141" value="VENDOR CODE&amp;nbsp;&lt;br&gt;DATA" style="shape=parallelogram;html=1;strokeWidth=2;perimeter=parallelogramPerimeter;whiteSpace=wrap;rounded=1;arcSize=12;size=0.23;fontSize=13;" vertex="1" parent="qAhWlhqfdEPMAs1lIDXD-113">
          <mxGeometry x="690" y="1230" width="100" height="60" as="geometry" />
        </mxCell>
        <mxCell id="qAhWlhqfdEPMAs1lIDXD-142" value="" style="endArrow=classic;html=1;rounded=0;fontSize=13;exitX=1;exitY=0.5;exitDx=0;exitDy=0;" edge="1" parent="qAhWlhqfdEPMAs1lIDXD-113" source="qAhWlhqfdEPMAs1lIDXD-73" target="qAhWlhqfdEPMAs1lIDXD-141">
          <mxGeometry width="50" height="50" relative="1" as="geometry">
            <mxPoint x="530" y="1240" as="sourcePoint" />
            <mxPoint x="580" y="1190" as="targetPoint" />
          </mxGeometry>
        </mxCell>
        <mxCell id="qAhWlhqfdEPMAs1lIDXD-144" value="PO" style="strokeWidth=2;html=1;shape=mxgraph.flowchart.document2;whiteSpace=wrap;size=0.25;fontSize=13;" vertex="1" parent="qAhWlhqfdEPMAs1lIDXD-113">
          <mxGeometry x="750" y="550" width="100" height="60" as="geometry" />
        </mxCell>
        <mxCell id="qAhWlhqfdEPMAs1lIDXD-145" value="" style="endArrow=classic;html=1;rounded=0;fontSize=13;exitX=1;exitY=0.5;exitDx=0;exitDy=0;entryX=0;entryY=0.5;entryDx=0;entryDy=0;entryPerimeter=0;" edge="1" parent="qAhWlhqfdEPMAs1lIDXD-113" source="qAhWlhqfdEPMAs1lIDXD-138" target="qAhWlhqfdEPMAs1lIDXD-144">
          <mxGeometry width="50" height="50" relative="1" as="geometry">
            <mxPoint x="700" y="700" as="sourcePoint" />
            <mxPoint x="750" y="650" as="targetPoint" />
          </mxGeometry>
        </mxCell>
        <mxCell id="qAhWlhqfdEPMAs1lIDXD-105" value="vendor pool&lt;br style=&quot;font-size: 13px;&quot;&gt;data" style="shape=parallelogram;html=1;strokeWidth=2;perimeter=parallelogramPerimeter;whiteSpace=wrap;rounded=1;arcSize=12;size=0.23;fontSize=13;" vertex="1" parent="qAhWlhqfdEPMAs1lIDXD-113">
          <mxGeometry x="230" y="250" width="100" height="60" as="geometry" />
        </mxCell>
        <mxCell id="l3MCz5efM6AO9_rTB8cb-72" value="" style="endArrow=classic;html=1;rounded=0;exitX=1.01;exitY=0.424;exitDx=0;exitDy=0;exitPerimeter=0;fontSize=13;" parent="1" source="l3MCz5efM6AO9_rTB8cb-69" target="qAhWlhqfdEPMAs1lIDXD-49" edge="1">
          <mxGeometry width="50" height="50" relative="1" as="geometry">
            <mxPoint x="940" y="720" as="sourcePoint" />
            <mxPoint x="960" y="800" as="targetPoint" />
            <Array as="points">
              <mxPoint x="1100" y="520" />
              <mxPoint x="1475" y="520" />
            </Array>
          </mxGeometry>
        </mxCell>
        <mxCell id="l3MCz5efM6AO9_rTB8cb-73" value="簽核完成拋轉" style="edgeLabel;html=1;align=center;verticalAlign=middle;resizable=0;points=[];fontSize=13;" parent="l3MCz5efM6AO9_rTB8cb-72" vertex="1" connectable="0">
          <mxGeometry x="0.3462" y="-2" relative="1" as="geometry">
            <mxPoint as="offset" />
          </mxGeometry>
        </mxCell>
        <mxCell id="qAhWlhqfdEPMAs1lIDXD-65" value="" style="edgeStyle=orthogonalEdgeStyle;rounded=0;orthogonalLoop=1;jettySize=auto;html=1;exitX=0;exitY=0.5;exitDx=0;exitDy=0;entryX=0.673;entryY=1.004;entryDx=0;entryDy=0;entryPerimeter=0;dashed=1;fontSize=13;" edge="1" parent="1" source="qAhWlhqfdEPMAs1lIDXD-51" target="qAhWlhqfdEPMAs1lIDXD-30">
          <mxGeometry relative="1" as="geometry">
            <mxPoint x="1100" y="970" as="sourcePoint" />
            <mxPoint x="650" y="1070" as="targetPoint" />
            <Array as="points">
              <mxPoint x="1130" y="1095" />
              <mxPoint x="1130" y="950" />
              <mxPoint x="1131" y="950" />
            </Array>
          </mxGeometry>
        </mxCell>
        <mxCell id="qAhWlhqfdEPMAs1lIDXD-72" value="人工填寫最後決定的&lt;br&gt;vendor name" style="edgeLabel;html=1;align=center;verticalAlign=middle;resizable=0;points=[];fontSize=13;" vertex="1" connectable="0" parent="qAhWlhqfdEPMAs1lIDXD-65">
          <mxGeometry x="-0.4068" y="-1" relative="1" as="geometry">
            <mxPoint x="-190" y="-154" as="offset" />
          </mxGeometry>
        </mxCell>
        <mxCell id="qAhWlhqfdEPMAs1lIDXD-66" value="" style="endArrow=classic;html=1;rounded=0;exitX=0.39;exitY=0.983;exitDx=0;exitDy=0;exitPerimeter=0;fontSize=13;" edge="1" parent="1" source="qAhWlhqfdEPMAs1lIDXD-122" target="qAhWlhqfdEPMAs1lIDXD-68">
          <mxGeometry width="50" height="50" relative="1" as="geometry">
            <mxPoint x="1270" y="785" as="sourcePoint" />
            <mxPoint x="1090" y="1130" as="targetPoint" />
            <Array as="points">
              <mxPoint x="610" y="1320" />
            </Array>
          </mxGeometry>
        </mxCell>
        <mxCell id="qAhWlhqfdEPMAs1lIDXD-67" value="財務簽核完成拋轉" style="edgeLabel;html=1;align=center;verticalAlign=middle;resizable=0;points=[];fontSize=13;" vertex="1" connectable="0" parent="qAhWlhqfdEPMAs1lIDXD-66">
          <mxGeometry x="0.3462" y="-2" relative="1" as="geometry">
            <mxPoint x="39" y="-2" as="offset" />
          </mxGeometry>
        </mxCell>
        <mxCell id="qAhWlhqfdEPMAs1lIDXD-143" value="" style="endArrow=classic;html=1;rounded=0;fontSize=13;exitX=0.5;exitY=0;exitDx=0;exitDy=0;" edge="1" parent="1" source="qAhWlhqfdEPMAs1lIDXD-141">
          <mxGeometry width="50" height="50" relative="1" as="geometry">
            <mxPoint x="1590" y="1090" as="sourcePoint" />
            <mxPoint x="1940" y="670" as="targetPoint" />
            <Array as="points">
              <mxPoint x="2060" y="1200" />
              <mxPoint x="2060" y="860" />
              <mxPoint x="1940" y="860" />
            </Array>
          </mxGeometry>
        </mxCell>
        <mxCell id="qAhWlhqfdEPMAs1lIDXD-120" value="search and retrun" style="endArrow=classic;startArrow=classic;html=1;rounded=0;exitX=1;exitY=0;exitDx=0;exitDy=0;entryX=0;entryY=0.75;entryDx=0;entryDy=0;fontSize=13;" edge="1" parent="1" source="l3MCz5efM6AO9_rTB8cb-63" target="qAhWlhqfdEPMAs1lIDXD-105">
          <mxGeometry width="50" height="50" relative="1" as="geometry">
            <mxPoint x="380" y="330" as="sourcePoint" />
            <mxPoint x="430" y="280" as="targetPoint" />
            <Array as="points">
              <mxPoint x="585" y="350" />
            </Array>
          </mxGeometry>
        </mxCell>
        <mxCell id="OIIZnQEeDxHb7drFmbfg-13" value="" style="endArrow=classic;html=1;rounded=0;fontSize=13;exitX=1;exitY=0.5;exitDx=0;exitDy=0;entryX=0.602;entryY=-0.046;entryDx=0;entryDy=0;entryPerimeter=0;" edge="1" parent="1" source="qAhWlhqfdEPMAs1lIDXD-115" target="qAhWlhqfdEPMAs1lIDXD-105">
          <mxGeometry width="50" height="50" relative="1" as="geometry">
            <mxPoint x="1550" y="290" as="sourcePoint" />
            <mxPoint x="1540" y="130" as="targetPoint" />
            <Array as="points">
              <mxPoint x="1610" y="130" />
            </Array>
          </mxGeometry>
        </mxCell>
        <mxCell id="OIIZnQEeDxHb7drFmbfg-14" value="簽核完成" style="edgeLabel;html=1;align=center;verticalAlign=middle;resizable=0;points=[];fontSize=13;" vertex="1" connectable="0" parent="OIIZnQEeDxHb7drFmbfg-13">
          <mxGeometry x="0.21" relative="1" as="geometry">
            <mxPoint x="-79" as="offset" />
          </mxGeometry>
        </mxCell>
      </root>
    </mxGraphModel>
  </diagram>
  <diagram id="YkNo7ZrWxixw1_TDKa__" name="檢疫流程圖">
    <mxGraphModel dx="2607" dy="2558" grid="1" gridSize="10" guides="1" tooltips="1" connect="1" arrows="1" fold="1" page="1" pageScale="1" pageWidth="827" pageHeight="1169" math="0" shadow="0">
      <root>
        <mxCell id="0" />
        <mxCell id="1" parent="0" />
        <mxCell id="17AFl5Gz9omKpdx36YDK-1" value="" style="rounded=0;html=1;jettySize=auto;orthogonalLoop=1;fontSize=13;endArrow=block;endFill=0;endSize=8;strokeWidth=1;shadow=0;labelBackgroundColor=none;edgeStyle=orthogonalEdgeStyle;entryX=0;entryY=0.5;entryDx=0;entryDy=0;" edge="1" parent="1" source="17AFl5Gz9omKpdx36YDK-2" target="17AFl5Gz9omKpdx36YDK-3">
          <mxGeometry relative="1" as="geometry">
            <mxPoint x="610" y="-580" as="targetPoint" />
          </mxGeometry>
        </mxCell>
        <mxCell id="17AFl5Gz9omKpdx36YDK-2" value="FORM1086" style="rounded=1;whiteSpace=wrap;html=1;fontSize=13;glass=0;strokeWidth=1;shadow=0;" vertex="1" parent="1">
          <mxGeometry x="370" y="-690" width="120" height="40" as="geometry" />
        </mxCell>
        <mxCell id="17AFl5Gz9omKpdx36YDK-3" value="FORM180" style="rounded=1;whiteSpace=wrap;html=1;fontSize=13;glass=0;strokeWidth=1;shadow=0;" vertex="1" parent="1">
          <mxGeometry x="570" y="-620" width="120" height="40" as="geometry" />
        </mxCell>
        <mxCell id="17AFl5Gz9omKpdx36YDK-4" value="FORM106" style="rounded=1;whiteSpace=wrap;html=1;fontSize=13;glass=0;strokeWidth=1;shadow=0;" vertex="1" parent="1">
          <mxGeometry x="770" y="-620" width="120" height="40" as="geometry" />
        </mxCell>
        <mxCell id="17AFl5Gz9omKpdx36YDK-5" value="開立PR" style="rounded=1;whiteSpace=wrap;html=1;fontSize=13;glass=0;strokeWidth=1;shadow=0;" vertex="1" parent="1">
          <mxGeometry x="960" y="-620" width="120" height="40" as="geometry" />
        </mxCell>
        <mxCell id="17AFl5Gz9omKpdx36YDK-6" value="" style="rounded=0;html=1;jettySize=auto;orthogonalLoop=1;fontSize=13;endArrow=block;endFill=0;endSize=8;strokeWidth=1;shadow=0;labelBackgroundColor=none;edgeStyle=orthogonalEdgeStyle;entryX=0;entryY=0.5;entryDx=0;entryDy=0;exitX=1;exitY=0.5;exitDx=0;exitDy=0;" edge="1" parent="1" source="17AFl5Gz9omKpdx36YDK-3" target="17AFl5Gz9omKpdx36YDK-4">
          <mxGeometry relative="1" as="geometry">
            <mxPoint x="720" y="-580" as="sourcePoint" />
            <mxPoint x="790" y="-580" as="targetPoint" />
            <Array as="points">
              <mxPoint x="740" y="-600" />
              <mxPoint x="740" y="-600" />
            </Array>
          </mxGeometry>
        </mxCell>
        <mxCell id="17AFl5Gz9omKpdx36YDK-7" value="" style="rounded=0;html=1;jettySize=auto;orthogonalLoop=1;fontSize=13;endArrow=block;endFill=0;endSize=8;strokeWidth=1;shadow=0;labelBackgroundColor=none;edgeStyle=orthogonalEdgeStyle;entryX=0;entryY=0.5;entryDx=0;entryDy=0;exitX=1;exitY=0.5;exitDx=0;exitDy=0;" edge="1" parent="1" source="17AFl5Gz9omKpdx36YDK-4" target="17AFl5Gz9omKpdx36YDK-5">
          <mxGeometry relative="1" as="geometry">
            <mxPoint x="880" y="-560" as="sourcePoint" />
            <mxPoint x="960" y="-560" as="targetPoint" />
            <Array as="points">
              <mxPoint x="920" y="-600" />
              <mxPoint x="920" y="-600" />
            </Array>
          </mxGeometry>
        </mxCell>
        <mxCell id="17AFl5Gz9omKpdx36YDK-8" value="開立PO" style="rounded=1;whiteSpace=wrap;html=1;fontSize=13;glass=0;strokeWidth=1;shadow=0;" vertex="1" parent="1">
          <mxGeometry x="1150" y="-620" width="120" height="40" as="geometry" />
        </mxCell>
        <mxCell id="17AFl5Gz9omKpdx36YDK-9" value="" style="rounded=0;html=1;jettySize=auto;orthogonalLoop=1;fontSize=13;endArrow=block;endFill=0;endSize=8;strokeWidth=1;shadow=0;labelBackgroundColor=none;edgeStyle=orthogonalEdgeStyle;entryX=0;entryY=0.5;entryDx=0;entryDy=0;" edge="1" parent="1" target="17AFl5Gz9omKpdx36YDK-8">
          <mxGeometry relative="1" as="geometry">
            <mxPoint x="1080" y="-600.0000000000002" as="sourcePoint" />
            <mxPoint x="1130" y="-600" as="targetPoint" />
            <Array as="points" />
          </mxGeometry>
        </mxCell>
        <mxCell id="17AFl5Gz9omKpdx36YDK-10" value="auto create" style="edgeLabel;html=1;align=center;verticalAlign=middle;resizable=0;points=[];fontSize=13;" vertex="1" connectable="0" parent="17AFl5Gz9omKpdx36YDK-9">
          <mxGeometry x="0.3036" y="-1" relative="1" as="geometry">
            <mxPoint x="-16" y="-12" as="offset" />
          </mxGeometry>
        </mxCell>
        <mxCell id="17AFl5Gz9omKpdx36YDK-11" value="CN start" style="strokeWidth=2;html=1;shape=mxgraph.flowchart.start_1;whiteSpace=wrap;fontSize=13;" vertex="1" parent="1">
          <mxGeometry x="230" y="-700" width="100" height="60" as="geometry" />
        </mxCell>
        <mxCell id="17AFl5Gz9omKpdx36YDK-12" value="" style="rounded=0;html=1;jettySize=auto;orthogonalLoop=1;fontSize=13;endArrow=block;endFill=0;endSize=8;strokeWidth=1;shadow=0;labelBackgroundColor=none;edgeStyle=orthogonalEdgeStyle;entryX=0;entryY=0.5;entryDx=0;entryDy=0;exitX=1;exitY=0.5;exitDx=0;exitDy=0;exitPerimeter=0;" edge="1" parent="1" source="17AFl5Gz9omKpdx36YDK-11" target="17AFl5Gz9omKpdx36YDK-2">
          <mxGeometry relative="1" as="geometry">
            <mxPoint x="700" y="-590.0000000000002" as="sourcePoint" />
            <mxPoint x="780" y="-590.0000000000002" as="targetPoint" />
            <Array as="points">
              <mxPoint x="350" y="-670" />
              <mxPoint x="350" y="-670" />
            </Array>
          </mxGeometry>
        </mxCell>
        <mxCell id="17AFl5Gz9omKpdx36YDK-13" value="TW start" style="strokeWidth=2;html=1;shape=mxgraph.flowchart.start_1;whiteSpace=wrap;fontSize=13;" vertex="1" parent="1">
          <mxGeometry x="360" y="-580" width="100" height="60" as="geometry" />
        </mxCell>
        <mxCell id="17AFl5Gz9omKpdx36YDK-14" value="" style="rounded=0;html=1;jettySize=auto;orthogonalLoop=1;fontSize=13;endArrow=block;endFill=0;endSize=8;strokeWidth=1;shadow=0;labelBackgroundColor=none;edgeStyle=orthogonalEdgeStyle;entryX=0;entryY=0.5;entryDx=0;entryDy=0;" edge="1" parent="1" target="17AFl5Gz9omKpdx36YDK-3">
          <mxGeometry relative="1" as="geometry">
            <mxPoint x="460" y="-550.0000000000002" as="sourcePoint" />
            <mxPoint x="530" y="-490" as="targetPoint" />
            <Array as="points">
              <mxPoint x="530" y="-550" />
              <mxPoint x="530" y="-600" />
            </Array>
          </mxGeometry>
        </mxCell>
      </root>
    </mxGraphModel>
  </diagram>
</mxfile>
